<svg width="18" height="18" viewBox="0 0 18 18" fill="none" xmlns="http://www.w3.org/2000/svg">
<g clip-path="url(#clip0)">
<path d="M9.00006 0.000976562C4.0374 0.000976562 0 4.03832 0 9.00091C0 13.9635 4.0374 18.0008 9.00006 18.0008C13.9627 18.0008 18 13.9635 18 9.00091C18 4.03832 13.9627 0.000976562 9.00006 0.000976562ZM9.00006 16.5254C4.85094 16.5254 1.4754 13.15 1.4754 9.00091C1.4754 4.85185 4.85094 1.47638 9.00006 1.47638C13.1491 1.47638 16.5246 4.85185 16.5246 9.00091C16.5246 13.15 13.1491 16.5254 9.00006 16.5254Z" fill="#0971F5"/>
<path d="M12.8935 5.54575L7.54988 10.8895L5.10674 8.44632C4.81862 8.15826 4.35157 8.15826 4.06345 8.44632C3.7754 8.73444 3.7754 9.20149 4.06345 9.4896L7.02824 12.4544C7.1723 12.5984 7.36109 12.6704 7.54988 12.6704C7.73868 12.6704 7.92747 12.5984 8.07153 12.4544L13.9368 6.58909C14.2249 6.30097 14.2249 5.83392 13.9368 5.54581C13.6487 5.25769 13.1816 5.25769 12.8935 5.54575Z" fill="#0971F5"/>
</g>
<defs>
<clipPath id="clip0">
<rect width="18" height="18" fill="white"/>
</clipPath>
</defs>
</svg>
